<svg viewBox="0 0 64 64" xmlns="http://www.w3.org/2000/svg">
  <!-- Layered Shield - Best VPN Match Symbol -->
  <!-- VPN Green (#16A34A) with navy accents (#0B1020) -->

  <!-- Outer shield (green border) -->
  <path d="M 32 8 L 52 20 L 52 36 C 52 50 32 60 32 60 C 32 60 12 50 12 36 L 12 20 Z"
        fill="none"
        stroke="#16A34A"
        stroke-width="2.5"
        stroke-linejoin="round"
        stroke-linecap="round"/>

  <!-- Middle layer shield (semi-transparent green) -->
  <path d="M 32 14 L 48 24 L 48 36 C 48 46.5 32 56 32 56 C 32 56 16 46.5 16 36 L 16 24 Z"
        fill="#16A34A"
        opacity="0.25"/>

  <!-- Inner shield (solid green) -->
  <path d="M 32 20 L 44 28 L 44 36 C 44 43 32 51 32 51 C 32 51 20 43 20 36 L 20 28 Z"
        fill="#16A34A"/>

  <!-- Subtle depth line (navy) -->
  <line x1="32" y1="20" x2="32" y2="51" stroke="#0B1020" stroke-width="1" opacity="0.15"/>
</svg>
