<svg xmlns="http://www.w3.org/2000/svg" width="1200" height="630" viewBox="0 0 1200 630">
  <defs>
    <linearGradient id="bg" x1="0" y1="0" x2="1200" y2="630" gradientUnits="userSpaceOnUse">
      <stop offset="0%" stop-color="#0a0c12"/>
      <stop offset="100%" stop-color="#0f1a2e"/>
    </linearGradient>
    <linearGradient id="accent" x1="0" y1="0" x2="1" y2="0">
      <stop offset="0%" stop-color="#00d26a"/>
      <stop offset="100%" stop-color="#2b7fff"/>
    </linearGradient>
    <linearGradient id="cardgrad" x1="0" y1="0" x2="0" y2="1">
      <stop offset="0%" stop-color="#1a1d2b"/>
      <stop offset="100%" stop-color="#11131a"/>
    </linearGradient>
    <filter id="glow">
      <feGaussianBlur stdDeviation="8" result="blur"/>
      <feMerge><feMergeNode in="blur"/><feMergeNode in="SourceGraphic"/></feMerge>
    </filter>
  </defs>

  <!-- Background -->
  <rect width="1200" height="630" fill="url(#bg)"/>

  <!-- Subtle grid lines -->
  <g opacity="0.04" stroke="#ffffff" stroke-width="1">
    <line x1="0" y1="105" x2="1200" y2="105"/>
    <line x1="0" y1="210" x2="1200" y2="210"/>
    <line x1="0" y1="315" x2="1200" y2="315"/>
    <line x1="0" y1="420" x2="1200" y2="420"/>
    <line x1="0" y1="525" x2="1200" y2="525"/>
    <line x1="200" y1="0" x2="200" y2="630"/>
    <line x1="400" y1="0" x2="400" y2="630"/>
    <line x1="600" y1="0" x2="600" y2="630"/>
    <line x1="800" y1="0" x2="800" y2="630"/>
    <line x1="1000" y1="0" x2="1000" y2="630"/>
  </g>

  <!-- Top accent bar -->
  <rect x="80" y="60" width="160" height="4" rx="2" fill="url(#accent)"/>

  <!-- Logo / Brand -->
  <text x="80" y="130" font-family="system-ui, -apple-system, sans-serif" font-weight="800" font-size="52" fill="#f0f3f8" letter-spacing="-1">Best VPN <tspan fill="url(#accent)">Match</tspan></text>

  <!-- Tagline -->
  <text x="80" y="180" font-family="system-ui, -apple-system, sans-serif" font-weight="400" font-size="24" fill="#8892b0">Independent scoring · Public data · No paid placement</text>

  <!-- Score cards row -->
  <!-- Card 1: ExpressVPN -->
  <rect x="80" y="230" width="210" height="110" rx="12" fill="url(#cardgrad)" stroke="#2a2d3e" stroke-width="1"/>
  <path transform="translate(100,256.5) scale(0.55)" d="M13 2 L4.8 13.4 H10.4 L9.2 22 L19.2 10.2 H13.4 Z" fill="#da3940" stroke="#da3940" stroke-width="1.5" stroke-linejoin="round"/>
  <text x="118" y="268" font-family="system-ui, sans-serif" font-size="13" fill="#8892b0">ExpressVPN</text>
  <text x="100" y="308" font-family="system-ui, sans-serif" font-weight="800" font-size="42" fill="#00d26a">91</text>
  <text x="155" y="308" font-family="system-ui, sans-serif" font-size="18" fill="#8892b0">/100</text>
  <text x="100" y="330" font-family="system-ui, sans-serif" font-size="11" fill="#6b7280">932 Mbps · BVI</text>

  <!-- Card 2: NordVPN -->
  <rect x="306" y="230" width="210" height="110" rx="12" fill="url(#cardgrad)" stroke="#2a2d3e" stroke-width="1"/>
  <text x="326" y="268" font-family="system-ui, sans-serif" font-size="13" fill="#8892b0">NordVPN</text>
  <text x="326" y="308" font-family="system-ui, sans-serif" font-weight="800" font-size="42" fill="#00d26a">91</text>
  <text x="381" y="308" font-family="system-ui, sans-serif" font-size="18" fill="#8892b0">/100</text>
  <text x="326" y="330" font-family="system-ui, sans-serif" font-size="11" fill="#6b7280">892 Mbps · Panama</text>

  <!-- Card 3: Surfshark -->
  <rect x="532" y="230" width="210" height="110" rx="12" fill="url(#cardgrad)" stroke="#2a2d3e" stroke-width="1"/>
  <text x="552" y="268" font-family="system-ui, sans-serif" font-size="13" fill="#8892b0">Surfshark</text>
  <text x="552" y="308" font-family="system-ui, sans-serif" font-weight="800" font-size="42" fill="#2b7fff">90</text>
  <text x="607" y="308" font-family="system-ui, sans-serif" font-size="18" fill="#8892b0">/100</text>
  <text x="552" y="330" font-family="system-ui, sans-serif" font-size="11" fill="#6b7280">$2.19/mo · Unlimited</text>

  <!-- Card 4: Proton VPN -->
  <rect x="758" y="230" width="210" height="110" rx="12" fill="url(#cardgrad)" stroke="#2a2d3e" stroke-width="1"/>
  <text x="778" y="268" font-family="system-ui, sans-serif" font-size="13" fill="#8892b0">Proton VPN</text>
  <text x="778" y="308" font-family="system-ui, sans-serif" font-weight="800" font-size="42" fill="#2b7fff">89</text>
  <text x="833" y="308" font-family="system-ui, sans-serif" font-size="18" fill="#8892b0">/100</text>
  <text x="778" y="330" font-family="system-ui, sans-serif" font-size="11" fill="#6b7280">Privacy 98/100 · CH</text>

  <!-- Category pills -->
  <g font-family="system-ui, sans-serif" font-size="13" font-weight="500">
    <rect x="80" y="370" width="106" height="30" rx="15" fill="#1a1d2b" stroke="#2a2d3e" stroke-width="1"/>
    <text x="133" y="390" text-anchor="middle" fill="#8892b0">Privacy</text>

    <rect x="198" y="370" width="92" height="30" rx="15" fill="#1a1d2b" stroke="#2a2d3e" stroke-width="1"/>
    <path transform="translate(212,377) scale(0.5)" d="M13 2 L4.8 13.4 H10.4 L9.2 22 L19.2 10.2 H13.4 Z" fill="#da3940" stroke="#da3940" stroke-width="1.5" stroke-linejoin="round"/>
    <text x="251" y="390" text-anchor="middle" fill="#8892b0">Speed</text>

    <rect x="302" y="370" width="114" height="30" rx="15" fill="#1a1d2b" stroke="#2a2d3e" stroke-width="1"/>
    <text x="359" y="390" text-anchor="middle" fill="#8892b0">Streaming</text>

    <rect x="428" y="370" width="92" height="30" rx="15" fill="#1a1d2b" stroke="#2a2d3e" stroke-width="1"/>
    <text x="474" y="390" text-anchor="middle" fill="#8892b0">Value</text>

    <rect x="532" y="370" width="96" height="30" rx="15" fill="#1a1d2b" stroke="#2a2d3e" stroke-width="1"/>
    <text x="580" y="390" text-anchor="middle" fill="#8892b0">Ethics</text>

    <rect x="640" y="370" width="108" height="30" rx="15" fill="#1a1d2b" stroke="#2a2d3e" stroke-width="1"/>
    <text x="694" y="390" text-anchor="middle" fill="#8892b0">Security</text>
  </g>

  <!-- Bottom bar -->
  <rect x="0" y="560" width="1200" height="70" fill="#0a0c12" opacity="0.8"/>
  <text x="80" y="603" font-family="system-ui, sans-serif" font-size="18" fill="#8892b0">bestvpnmatch.com</text>
  <text x="1120" y="603" font-family="system-ui, sans-serif" font-size="16" fill="#8892b0" text-anchor="end">15 VPNs · June 2026</text>

  <!-- Accent glow dot top right -->
  <circle cx="1100" cy="100" r="120" fill="#00d26a" opacity="0.04"/>
  <circle cx="1100" cy="100" r="60" fill="#00d26a" opacity="0.05"/>
</svg>
